<svg xmlns="http://www.w3.org/2000/svg" width="24.05" height="24.003" viewBox="0 0 24.05 24.003">
  <path id="comet" d="M8.659,24a8.6,8.6,0,0,1-6.123-2.536c-7.3-7.722,2.772-17.7,6.94-20a2.937,2.937,0,0,1,4.5,2.086A29.489,29.489,0,0,1,19.353.239,3.357,3.357,0,0,1,23,1a3.358,3.358,0,0,1,.765,3.645,29.548,29.548,0,0,1-3.316,5.377,2.937,2.937,0,0,1,2.086,4.5C21.1,16.749,15.88,24,8.661,24ZM11,4.056C-6.441,15.454,8.594,30.411,19.944,13H17.5a1.51,1.51,0,0,1-1.2-2.4c2.651-3.535,4.223-5.905,4.669-7.046a.406.406,0,0,0-.523-.523h0C19.3,3.477,16.935,5.049,13.4,7.7A1.5,1.5,0,0,1,11,6.5V4.056ZM9,18a3,3,0,0,0,0-6A3,3,0,0,0,9,18Z" transform="translate(0.047 0.001)" fill="#0d0d0d"/>
</svg>
