<svg xmlns="http://www.w3.org/2000/svg" width="23.98" height="23.99" viewBox="0 0 23.98 23.99">
  <path id="planet-ringed" d="M8.43,21.33a50.246,50.246,0,0,0,7-5.9c4.581-4.581,5.9-7,5.893-7.011,2.17-3.167,3.524-6.294,2.033-7.784-1.6-1.605-5.035.13-7.808,2.025A9.972,9.972,0,0,0,2.656,15.545C.763,18.319-.971,21.751.632,23.354a2.3,2.3,0,0,0,1.7.637A9.785,9.785,0,0,0,6.9,22.317c.261-.155,1.286-.818,1.533-.986ZM21.938,2.046c.318.318-.15,1.92-1.668,4.344a10.107,10.107,0,0,0-2.685-2.683c3.01-1.894,4.228-1.785,4.353-1.661ZM5.878,20.595c-2.686,1.591-3.735,1.442-3.832,1.345-.124-.124-.232-1.344,1.661-4.353a10.086,10.086,0,0,0,2.686,2.688c-.172.108-.347.221-.515.321Zm16.063-9.582a9.628,9.628,0,0,1,.052.981,10.011,10.011,0,0,1-10,10,9.589,9.589,0,0,1-.979-.052,55.5,55.5,0,0,0,5.827-5.1,59.65,59.65,0,0,0,5.1-5.83Z" transform="translate(0 -0.001)" fill="#0d0d0d"/>
</svg>
