<svg xmlns="http://www.w3.org/2000/svg" width="24" height="24" viewBox="0 0 24 24">
  <path id="planet-moon" d="M21.5,5A2.5,2.5,0,1,1,24,2.5,2.5,2.5,0,0,1,21.5,5ZM21,13.5A10.5,10.5,0,1,1,10.5,3,10.512,10.512,0,0,1,21,13.5Zm-6.464-.47L11.486,11.3a2,2,0,0,0-1.06-.3H8.89a.941.941,0,0,1-.666-.276l-.558-.558a.942.942,0,0,1,0-1.332L8.02,8.48A.94.94,0,0,1,9.107,8.3l.786.393A.942.942,0,0,0,11.122,7.37L10.3,6a.94.94,0,0,1,.016-.995.021.021,0,0,1,0-.006A8.51,8.51,0,0,0,2.853,9.794l.852.9A1,1,0,0,0,4.43,11H6.611a.941.941,0,0,1,.666.276l.448.448A.941.941,0,0,1,8,12.391v.781a2,2,0,0,0,.586,1.414l1.138,1.138A.941.941,0,0,1,10,16.39v1.482A1.128,1.128,0,0,0,11.129,19h.491a1.127,1.127,0,0,0,.99-.588l2.254-4.133a.942.942,0,0,0-.328-1.25Z" fill="#0d0d0d"/>
</svg>
