<svg xmlns="http://www.w3.org/2000/svg" width="24" height="24" viewBox="0 0 24 24">
  <path id="brain-circuit" d="M11,17v3.946a2.97,2.97,0,0,1-2.248,2.91,5.491,5.491,0,0,1-6.485-3.691A4.978,4.978,0,0,1,0,16a4.88,4.88,0,0,1,.686-2.5A4.89,4.89,0,0,1,0,11,4.992,4.992,0,0,1,2,7.021V7A4.007,4.007,0,0,1,5.1,3.1,4.008,4.008,0,0,1,9,0h.022A1.984,1.984,0,0,1,11,1.984V8H8.723a2,2,0,1,0,0,2H11v5H8.723a2,2,0,1,0,0,2H11Zm13-6a4.992,4.992,0,0,0-2-3.979V7a4.007,4.007,0,0,0-3.1-3.9A4.008,4.008,0,0,0,15,0h-.022A1.984,1.984,0,0,0,13,1.984V12h3V10.723a2,2,0,1,1,2,0V14H13v6.946a2.97,2.97,0,0,0,2.248,2.91,5.491,5.491,0,0,0,6.485-3.691A4.978,4.978,0,0,0,24,16a4.88,4.88,0,0,0-.686-2.5A4.89,4.89,0,0,0,24,11Z" fill="#00c89c"/>
</svg>
