<svg xmlns="http://www.w3.org/2000/svg" width="23.999" height="18" viewBox="0 0 23.999 18">
  <g id="eye" transform="translate(0 -3)">
    <path id="Контур_9" data-name="Контур 9" d="M23.821,11.181h0C22.943,9.261,19.5,3,12,3S1.057,9.261.179,11.181a1.969,1.969,0,0,0,0,1.64C1.057,14.739,4.5,21,12,21s10.943-6.261,11.821-8.181A1.968,1.968,0,0,0,23.821,11.181ZM12,18a6,6,0,1,1,6-6A6,6,0,0,1,12,18Z" fill="#00c89c"/>
    <circle id="Эллипс_4" data-name="Эллипс 4" cx="4" cy="4" r="4" transform="translate(8 8)" fill="#00c89c"/>
  </g>
</svg>
