<svg xmlns="http://www.w3.org/2000/svg" width="24" height="24.001" viewBox="0 0 24 24.001">
  <path id="portal-exit" d="M24,12a1,1,0,0,1-1,1H20.771A3.017,3.017,0,0,1,18.2,11.547l-.564-.936-2.155,5.255,2.043,1.289A1,1,0,0,1,17.99,18v5a1,1,0,0,1-2,0V18.553l-4.126-2.6a3,3,0,0,1-1.173-3.675L12.444,8H11.236a.994.994,0,0,0-.894.553L8.9,11.449a1,1,0,0,1-1.789-.9L8.553,7.659A2.986,2.986,0,0,1,11.236,6h2.651a.753.753,0,0,1,.1,0H15.5a3.015,3.015,0,0,1,2.57,1.453l1.844,3.062a1,1,0,0,0,.857.484H23a1,1,0,0,1,1,1ZM5.009,15.99c-.009,0-.016.005-.025.005C5.111,15.993,5.261,15.991,5.009,15.99Zm5.855.825a1,1,0,0,0-1.287.526A1.041,1.041,0,0,1,8.636,18H5.005a1,1,0,0,1-.02-2l-.1,0a1,1,0,0,0,1.035-.946C5.975,14.06,6,13.032,6,12,6,8.392,5.709,0,3,0S0,8.392,0,12,.292,24,3,24c1.153,0,1.884-1.207,2.391-4H8.636a2.986,2.986,0,0,0,2.785-1.885,1,1,0,0,0-.557-1.3ZM17.989,5a2.5,2.5,0,1,0-2.5-2.5A2.5,2.5,0,0,0,17.989,5Z" fill="#006a9c"/>
</svg>
