<svg id="mode-portrait" xmlns="http://www.w3.org/2000/svg" width="24" height="24" viewBox="0 0 24 24">
  <path id="Контур_2" data-name="Контур 2" d="M23,16a1,1,0,0,0-1,1v2a3,3,0,0,1-3,3H17a1,1,0,0,0,0,2h2a5.006,5.006,0,0,0,5-5V17A1,1,0,0,0,23,16Z" fill="#00929c"/>
  <path id="Контур_3" data-name="Контур 3" d="M1,8A1,1,0,0,0,2,7V5A3,3,0,0,1,5,2H7A1,1,0,1,0,7,0H5A5.006,5.006,0,0,0,0,5V7A1,1,0,0,0,1,8Z" fill="#00929c"/>
  <path id="Контур_4" data-name="Контур 4" d="M7,22H5a3,3,0,0,1-3-3V17a1,1,0,0,0-2,0v2a5.006,5.006,0,0,0,5,5H7a1,1,0,0,0,0-2Z" fill="#00929c"/>
  <path id="Контур_5" data-name="Контур 5" d="M19,0H17a1,1,0,0,0,0,2h2a3,3,0,0,1,3,3V7a1,1,0,0,0,2,0V5A5.006,5.006,0,0,0,19,0Z" fill="#00929c"/>
  <circle id="Эллипс_1" data-name="Эллипс 1" cx="4" cy="4" r="4" transform="translate(8 3)" fill="#00929c"/>
  <path id="Контур_6" data-name="Контур 6" d="M11,13a6.006,6.006,0,0,0-6,6,1,1,0,0,0,1,1H18a1,1,0,0,0,1-1,6.006,6.006,0,0,0-6-6Z" fill="#00929c"/>
</svg>
