<svg xmlns="http://www.w3.org/2000/svg" width="24.003" height="23.999" viewBox="0 0 24.003 23.999">
  <path id="telescope" d="M23.905,9.074l-4-8.5a1,1,0,1,0-1.81.852l.362.769L5.269,7.815A3.755,3.755,0,0,0,3.075,12L.6,13.083a1,1,0,0,0,.8,1.832L3.98,13.783a3.734,3.734,0,0,0,4.237.913l3.322-1.415L7.1,22.568a1,1,0,1,0,1.805.863l4.6-9.614,4.6,9.614A1,1,0,0,0,19,24a.989.989,0,0,0,.431-.1,1,1,0,0,0,.471-1.334L14.8,11.892,21.65,8.973l.448.951A1,1,0,0,0,23,10.5a.988.988,0,0,0,.425-.1,1,1,0,0,0,.479-1.331Z" transform="translate(0.001 0)" fill="#fff"/>
</svg>
