<?xml version="1.0" encoding="utf-8"?>
<!-- Generator: Adobe Illustrator 23.1.0, SVG Export Plug-In . SVG Version: 6.00 Build 0)  -->
<svg version="1.1" id="Слой_1" xmlns="http://www.w3.org/2000/svg" xmlns:xlink="http://www.w3.org/1999/xlink" x="0px" y="0px"
	 viewBox="0 0 1690.6 1313.6" style="enable-background:new 0 0 1690.6 1313.6;" xml:space="preserve">
<style type="text/css">
	.st0{fill:none;stroke:#D3D3D3;stroke-width:2;}
	.st1{fill:#FFFFFF;}
	.st2{fill:#F2F2F2;}
	.st3{fill:#A200FF;}
	.st4{font-family:'OpenSans-Regular';}
	.st5{font-size:14px;}
	.st6{font-family:'OpenSans-Bold';}
	.st7{font-size:13px;}
	.st8{fill:#6F6F6F;}
	.st9{fill:#40C69F;}
	.st10{fill:#D8305C;}
	.st11{fill:#316896;}
	.st12{fill:#FFC200;}
</style>
<path class="st0" d="M768.6,336.7h139c6.7,0,10,3.3,10,10v841.4c0,6.7,3.3,10,10,10h139h-139c-6.7,0-10-3.3-10-10V346.7
	c0-6.7-3.3-10-10-10H768.6L768.6,336.7 M778.6,332.7v8 M1056.6,1194.1v8"/>
<g>
	<rect x="17.7" y="841.6" class="st1" width="172.6" height="30"/>
	<path class="st2" d="M188.8,843.1v27H19.2v-27H188.8 M191.8,840.1H16.2v33h175.6V840.1L191.8,840.1z"/>
</g>
<path class="st0" d="M449.6,173h42.6c6.7,0,10,3.3,10,10v143.7c0,6.7,3.3,10,10,10h42.6h-42.6c-6.7,0-10-3.3-10-10V183
	c0-6.7-3.3-10-10-10H449.6L449.6,173 M449.6,169l10,4l-10,4 M544.7,332.7v8"/>
<path class="st0" d="M426,924.5h23.9c6.7,0,10-3.3,10-10V727.1c0-6.7-3.3-10-10-10h-10h10c6.7,0,10,3.3,10,10v187.3
	c0,6.7-3.3,10-10,10H426L426,924.5z M436,920.5v8 M439.9,713.1l10,4l-10,4"/>
<path class="st0" d="M426,924.5h110.1c6.7,0,10,3.3,10,10v121.2c0,6.7-3.3,10-10,10h-10h10c6.7,0,10-3.3,10-10V934.5
	c0-6.7-3.3-10-10-10H426L426,924.5z M436,920.5v8 M526.1,1061.6l10,4l-10,4"/>
<path class="st0" d="M526.1,1098.6h37.2c0.4,0,0.5,0.2,0.5,0.5l0,0c0,0.4,0.2,0.5,0.5,0.5h37.2h-37.2c-0.4,0-0.5-0.2-0.5-0.5l0,0
	c0-0.4-0.2-0.5-0.5-0.5H526.1L526.1,1098.6 M526.1,1094.6l10,4l-10,4 M591.6,1095.7v8"/>
<path class="st0" d="M768.6,336.7h10c6.7,0,10,3.3,10,10v438c0,6.7-3.3,10-10,10h-13.3h13.3c6.7,0,10-3.3,10-10v-438
	c0-6.7-3.3-10-10-10H768.6L768.6,336.7z M778.6,332.7v8 M775.2,790.7v8"/>
<path class="st0" d="M426,924.5h62.7c6.7,0,10-3.3,10-10v-76.7c0-6.7,3.3-10,10-10h62.7h-62.7c-6.7,0-10,3.3-10,10v76.7
	c0,6.7-3.3,10-10,10H426L426,924.5 M436,920.5v8 M561.4,823.7v8"/>
<path class="st0" d="M765.2,794.7h10c6.7,0,10,3.3,10,10v154.8c0,6.7-3.3,10-10,10h-19.6h19.6c6.7,0,10-3.3,10-10V804.7
	c0-6.7-3.3-10-10-10H765.2L765.2,794.7z M775.2,790.7v8 M755.6,965.5l10,4l-10,4"/>
<path class="st0" d="M746.3,1099.7h19.3c6.7,0,10-3.3,10-10v-77.2c0-6.7-3.3-10-10-10h-10h10c6.7,0,10,3.3,10,10v77.2
	c0,6.7-3.3,10-10,10H746.3L746.3,1099.7z M756.3,1095.7v8 M755.6,998.5l10,4l-10,4"/>
<path class="st0" d="M977.8,1098.4h44c0.2,0,0.3,0.1,0.3,0.3l0,0c0,0.2,0.1,0.3,0.3,0.3h44h-44c-0.2,0-0.3-0.1-0.3-0.3l0,0
	c0-0.2-0.1-0.3-0.3-0.3H977.8L977.8,1098.4 M977.8,1094.4l10,4l-10,4 M1056.6,1095.1v8"/>
<path class="st0" d="M746.3,1099.7h17c6.7,0,10,3.3,10,10v11.7c0,6.7,3.3,10,10,10h17h-17c-6.7,0-10-3.3-10-10v-11.7
	c0-6.7-3.3-10-10-10H746.3L746.3,1099.7 M756.3,1095.7v8 M800.2,1127.4l-10,4l10,4"/>
<path class="st0" d="M1285.2,1099.1h24.2c6.7,0,10-3.3,10-10v-51.2c0-6.7,3.3-10,10-10h24.2h-24.2c-6.7,0-10,3.3-10,10v51.2
	c0,6.7-3.3,10-10,10H1285.2L1285.2,1099.1 M1295.2,1095.1v8 M1353.5,1023.9l-10,4l10,4"/>
<path class="st0" d="M765.2,794.7h190.3c6.7,0,10-3.3,10-10V432.4c0-6.7,3.3-10,10-10h190.3H975.6c-6.7,0-10,3.3-10,10v352.3
	c0,6.7-3.3,10-10,10H765.2L765.2,794.7 M775.2,790.7v8 M1155.9,418.4v8"/>
<path class="st0" d="M1054.6,223.2h45.6c6.7,0,10,3.3,10,10v113.2c0,6.7,3.3,10,10,10h45.6h-45.6c-6.7,0-10-3.3-10-10V233.2
	c0-6.7-3.3-10-10-10H1054.6L1054.6,223.2 M1054.6,219.2l10,4l-10,4 M1155.9,352.4v8"/>
<path class="st0" d="M768.6,336.7h40.5c6.7,0,10-3.3,10-10v-60.5c0-6.7,3.3-10,10-10h40.5h-40.5c-6.7,0-10,3.3-10,10v60.5
	c0,6.7-3.3,10-10,10H768.6L768.6,336.7 M778.6,332.7v8 M869.6,252.2l-10,4l10,4"/>
<path class="st0" d="M1285.2,1099.1h12.9c6.7,0,10-3.3,10-10V700c0-6.7-3.3-10-10-10h-10h10c6.7,0,10,3.3,10,10v389.1
	c0,6.7-3.3,10-10,10H1285.2L1285.2,1099.1z M1295.2,1095.1v8 M1288,686l10,4l-10,4"/>
<path class="st0" d="M1288,657h69.9c6.7,0,10-3.3,10-10V528.9c0-6.7,3.3-10,10-10h69.9H1378c-6.7,0-10,3.3-10,10V647
	c0,6.7-3.3,10-10,10H1288L1288,657 M1298,653v8 M1437.9,514.9v8"/>
<path class="st0" d="M1350.2,356.4h38.9c6.7,0,10,3.3,10,10v175.5c0,6.7,3.3,10,10,10h38.9H1409c-6.7,0-10-3.3-10-10V366.4
	c0-6.7-3.3-10-10-10H1350.2L1350.2,356.4 M1360.2,352.4v8 M1437.9,547.9v8"/>
<path class="st0" d="M1288,657h10.8c6.7,0,10-3.3,10-10V517.4c0-6.7-3.3-10-10-10h-10h10c6.7,0,10,3.3,10,10V647c0,6.7-3.3,10-10,10
	H1288L1288,657z M1298,653v8 M1298.9,503.4v8"/>
<path class="st0" d="M768.6,336.7h155.3c6.7,0,10,3.3,10,10v183.6c0,6.7,3.3,10,10,10h155.3H943.8c-6.7,0-10-3.3-10-10V346.7
	c0-6.7-3.3-10-10-10H768.6L768.6,336.7 M778.6,332.7v8 M1089.1,536.4v8"/>
<path class="st0" d="M1288,657h89.2c6.7,0,10-3.3,10-10V205.7c0-6.7,3.3-10,10-10h89.2h-89.2c-6.7,0-10,3.3-10,10V647
	c0,6.7-3.3,10-10,10H1288L1288,657 M1298,653v8 M1486.4,191.7l-10,4l10,4"/>
<path class="st0" d="M768.6,336.7h348.9c6.7,0,10-3.3,10-10v-88c0-6.7,3.3-10,10-10h348.9h-348.9c-6.7,0-10,3.3-10,10v88
	c0,6.7-3.3,10-10,10H768.6L768.6,336.7 M778.6,332.7v8 M1486.4,224.7l-10,4l10,4"/>
<path class="st0" d="M768.6,336.7h103.7c6.7,0,10,3.3,10,10v557c0,6.7,3.3,10,10,10H996H892.3c-6.7,0-10-3.3-10-10v-557
	c0-6.7-3.3-10-10-10H768.6L768.6,336.7 M778.6,332.7v8 M996,909.7l-10,4l10,4"/>
<path class="st0" d="M1181.1,946.7h76.2c6.7,0,10,3.3,10,10v28.2c0,6.7,3.3,10,10,10h76.2h-76.2c-6.7,0-10-3.3-10-10v-28.2
	c0-6.7-3.3-10-10-10H1181.1L1181.1,946.7 M1181.1,942.7l10,4l-10,4 M1343.5,990.9v8"/>
<path class="st0" d="M234.7,322.1h26.6c0.1,0,0.1,0,0.1-0.1l0,0c0-0.1,0-0.1,0.1-0.1h26.6h-26.6c-0.1,0-0.1,0-0.1,0.1l0,0
	c0,0.1,0,0.1-0.1,0.1H234.7L234.7,322.1 M244.7,318.1v8 M288.1,317.9l-10,4l10,4"/>
<path class="st0" d="M451.1,354.9h42.7c6.1,0,9.1-3,9.1-9.1l0,0c0-6.1,3-9.1,9.1-9.1h42.7H512c-6.1,0-9.1,3-9.1,9.1l0,0
	c0,6.1-3,9.1-9.1,9.1H451.1L451.1,354.9 M451.1,350.9l10,4l-10,4 M544.7,332.7v8"/>
<path class="st0" d="M768.6,336.7h10c6.7,0,10-3.3,10-10V92.5c0-6.7-3.3-10-10-10h-11h11c6.7,0,10,3.3,10,10v234.2
	c0,6.7-3.3,10-10,10H768.6L768.6,336.7z M778.6,332.7v8 M767.6,78.5l10,4l-10,4"/>
<g>
	<rect x="1.5" y="499.4" class="st1" width="210.4" height="30"/>
	<path class="st2" d="M210.4,500.9v27H3v-27H210.4 M213.4,497.9H0v33h213.4V497.9L213.4,497.9z"/>
</g>
<rect x="800.2" y="1048.9" class="st3" width="177.6" height="33"/>
<rect x="571.3" y="920" class="st3" width="184.3" height="33"/>
<rect x="332.3" y="1016.1" class="st3" width="193.8" height="33"/>
<rect y="530.9" class="st2" width="213.4" height="33"/>
<rect x="16.2" y="873.1" class="st2" width="175.6" height="33"/>
<text transform="matrix(1 0 0 1 452.5843 170.0339)" class="st4 st5">*</text>
<text transform="matrix(1 0 0 1 543.6847 333.7032)" class="st4 st5">1</text>
<text transform="matrix(1 0 0 1 429.0124 921.4547)" class="st4 st5">1</text>
<text transform="matrix(1 0 0 1 442.8769 714.1251)" class="st4 st5">*</text>
<text transform="matrix(1 0 0 1 429.0124 921.4547)" class="st4 st5">1</text>
<text transform="matrix(1 0 0 1 529.1109 1062.6187)" class="st4 st5">*</text>
<text transform="matrix(1 0 0 1 529.1109 1095.6187)" class="st4 st5">*</text>
<text transform="matrix(1 0 0 1 590.5587 1096.6858)" class="st4 st5">1</text>
<text transform="matrix(1 0 0 1 771.5656 333.7032)" class="st4 st5">1</text>
<text transform="matrix(1 0 0 1 768.2323 791.718)" class="st4 st5">1</text>
<text transform="matrix(1 0 0 1 429.0124 921.4547)" class="st4 st5">1</text>
<text transform="matrix(1 0 0 1 560.41 824.718)" class="st4 st5">1</text>
<text transform="matrix(1 0 0 1 768.2323 791.718)" class="st4 st5">1</text>
<text transform="matrix(1 0 0 1 758.6085 966.5306)" class="st4 st5">*</text>
<text transform="matrix(1 0 0 1 749.2691 1096.6858)" class="st4 st5">1</text>
<text transform="matrix(1 0 0 1 758.6085 999.5306)" class="st4 st5">*</text>
<text transform="matrix(1 0 0 1 771.5656 333.7032)" class="st4 st5">1</text>
<text transform="matrix(1 0 0 1 1055.5629 1195.0952)" class="st4 st5">1</text>
<text transform="matrix(1 0 0 1 980.8339 1095.4347)" class="st4 st5">*</text>
<text transform="matrix(1 0 0 1 1055.5629 1096.0952)" class="st4 st5">1</text>
<text transform="matrix(1 0 0 1 749.2691 1096.6858)" class="st4 st5">1</text>
<text transform="matrix(1 0 0 1 789.4984 1128.4346)" class="st4 st5">*</text>
<text transform="matrix(1 0 0 1 1288.1727 1096.0952)" class="st4 st5">1</text>
<text transform="matrix(1 0 0 1 1342.7981 1024.8956)" class="st4 st5">*</text>
<text transform="matrix(1 0 0 1 768.2323 791.718)" class="st4 st5">1</text>
<text transform="matrix(1 0 0 1 1154.8931 419.4055)" class="st4 st5">1</text>
<text transform="matrix(1 0 0 1 1057.6198 220.2327)" class="st4 st5">*</text>
<text transform="matrix(1 0 0 1 1154.8931 353.4056)" class="st4 st5">1</text>
<text transform="matrix(1 0 0 1 771.5656 333.7032)" class="st4 st5">1</text>
<text transform="matrix(1 0 0 1 858.8639 253.2327)" class="st4 st5">*</text>
<text transform="matrix(1 0 0 1 1288.1727 1096.0952)" class="st4 st5">1</text>
<text transform="matrix(1 0 0 1 1291.0452 686.9683)" class="st4 st5">*</text>
<text transform="matrix(1 0 0 1 1291.0452 653.9683)" class="st4 st5">1</text>
<text transform="matrix(1 0 0 1 1436.8881 515.8601)" class="st4 st5">1</text>
<text transform="matrix(1 0 0 1 1353.1875 353.4055)" class="st4 st5">1</text>
<text transform="matrix(1 0 0 1 1436.8879 548.8601)" class="st4 st5">1</text>
<text transform="matrix(1 0 0 1 1291.0452 653.9683)" class="st4 st5">1</text>
<text transform="matrix(1 0 0 1 1291.8766 504.3519)" class="st4 st5">1</text>
<text transform="matrix(1 0 0 1 771.5656 333.7032)" class="st4 st5">1</text>
<text transform="matrix(1 0 0 1 1088.0914 537.3519)" class="st4 st5">1</text>
<text transform="matrix(1 0 0 1 1291.0452 653.9683)" class="st4 st5">1</text>
<text transform="matrix(1 0 0 1 1475.7206 192.705)" class="st4 st5">*</text>
<text transform="matrix(1 0 0 1 771.5656 333.7032)" class="st4 st5">1</text>
<text transform="matrix(1 0 0 1 1475.7207 225.705)" class="st4 st5">*</text>
<text transform="matrix(1 0 0 1 771.5656 333.7032)" class="st4 st5">1</text>
<text transform="matrix(1 0 0 1 985.3042 910.657)" class="st4 st5">*</text>
<text transform="matrix(1 0 0 1 1184.0601 943.6569)" class="st4 st5">*</text>
<text transform="matrix(1 0 0 1 1342.504 991.8956)" class="st4 st5">1</text>
<text transform="matrix(1 0 0 1 237.6645 319.1251)" class="st4 st5">1</text>
<text transform="matrix(1 0 0 1 277.3672 318.894)" class="st4 st5">*</text>
<text transform="matrix(1 0 0 1 454.1031 351.8941)" class="st4 st5">*</text>
<text transform="matrix(1 0 0 1 543.6847 333.7032)" class="st4 st5">1</text>
<text transform="matrix(1 0 0 1 771.5656 333.7032)" class="st4 st5">1</text>
<text transform="matrix(1 0 0 1 770.5762 79.5)" class="st4 st5">*</text>
<rect x="554.7" y="287.2" width="213.9" height="33"/>
<text transform="matrix(1 0 0 1 564.6896 306.9532)" class="st1 st6 st7">User</text>
<rect x="554.7" y="320.2" class="st2" width="213.9" height="33"/>
<text transform="matrix(1 0 0 1 564.6896 339.9532)" class="st6 st7">id</text>
<text transform="matrix(1 0 0 1 711.8024 339.9532)" class="st6 st7">integer</text>
<rect x="554.7" y="353.2" class="st2" width="213.9" height="33"/>
<text transform="matrix(1 0 0 1 564.6896 372.9532)" class="st8 st4 st7">role</text>
<text transform="matrix(1 0 0 1 724.1105 372.9532)" class="st8 st4 st7">string</text>
<rect x="554.7" y="386.2" class="st2" width="213.9" height="33"/>
<text transform="matrix(1 0 0 1 564.6896 405.9532)" class="st8 st4 st7">email</text>
<text transform="matrix(1 0 0 1 724.1105 405.9532)" class="st8 st4 st7">string</text>
<rect x="554.7" y="419.2" class="st2" width="213.9" height="33"/>
<text transform="matrix(1 0 0 1 564.6896 438.9532)" class="st8 st4 st7">password</text>
<text transform="matrix(1 0 0 1 724.1105 438.9532)" class="st8 st4 st7">string</text>
<rect x="554.7" y="452.2" class="st2" width="213.9" height="33"/>
<text transform="matrix(1 0 0 1 564.6896 471.9532)" class="st8 st4 st7">lname</text>
<text transform="matrix(1 0 0 1 724.1105 471.9532)" class="st8 st4 st7">string</text>
<rect x="554.7" y="485.2" class="st2" width="213.9" height="33"/>
<text transform="matrix(1 0 0 1 564.6896 504.9532)" class="st8 st4 st7">fname</text>
<text transform="matrix(1 0 0 1 724.1105 504.9532)" class="st8 st4 st7">string</text>
<rect x="554.7" y="518.2" class="st2" width="213.9" height="33"/>
<text transform="matrix(1 0 0 1 564.6896 537.9532)" class="st8 st4 st7">sname</text>
<text transform="matrix(1 0 0 1 724.1105 537.9532)" class="st8 st4 st7">string</text>
<rect x="554.7" y="551.2" class="st2" width="213.9" height="33"/>
<text transform="matrix(1 0 0 1 564.6896 570.9532)" class="st8 st4 st7">date_created</text>
<text transform="matrix(1 0 0 1 704.2042 570.9532)" class="st8 st4 st7">datetime</text>
<rect x="554.7" y="584.2" class="st2" width="213.9" height="33"/>
<text transform="matrix(1 0 0 1 564.6896 603.9532)" class="st8 st4 st7">date_online</text>
<text transform="matrix(1 0 0 1 704.2042 603.9532)" class="st8 st4 st7">datetime</text>
<rect x="554.7" y="617.2" class="st2" width="213.9" height="33"/>
<text transform="matrix(1 0 0 1 564.6896 636.9532)" class="st8 st4 st7">sign</text>
<text transform="matrix(1 0 0 1 735.1935 636.9532)" class="st8 st4 st7">text</text>
<rect x="554.7" y="650.2" class="st2" width="213.9" height="33"/>
<text transform="matrix(1 0 0 1 564.6896 669.9532)" class="st8 st4 st7">telegram</text>
<text transform="matrix(1 0 0 1 715.7062 669.9532)" class="st8 st4 st7">integer</text>
<rect x="554.7" y="683.2" class="st2" width="213.9" height="33"/>
<text transform="matrix(1 0 0 1 564.6896 702.9532)" class="st8 st4 st7">confirmed</text>
<text transform="matrix(1 0 0 1 731.6896 702.9532)" class="st8 st4 st7">bool</text>
<rect x="286.7" y="90.5" width="162.9" height="33"/>
<text transform="matrix(1 0 0 1 296.6927 110.2839)" class="st1 st6 st7">UserActivities</text>
<rect x="286.7" y="123.5" class="st2" width="162.9" height="33"/>
<text transform="matrix(1 0 0 1 296.6927 143.2839)" class="st6 st7">id</text>
<text transform="matrix(1 0 0 1 392.8211 143.2839)" class="st6 st7">integer</text>
<rect x="286.7" y="156.5" class="st2" width="162.9" height="33"/>
<text transform="matrix(1 0 0 1 296.6927 176.2839)" class="st8 st4 st7">user_id</text>
<text transform="matrix(1 0 0 1 396.7249 176.2839)" class="st8 st4 st7">integer</text>
<rect x="286.7" y="189.5" class="st2" width="162.9" height="33"/>
<text transform="matrix(1 0 0 1 296.6927 209.2839)" class="st8 st4 st7">date</text>
<text transform="matrix(1 0 0 1 385.2229 209.2839)" class="st8 st4 st7">datetime</text>
<rect x="281.3" y="875" class="st9" width="144.7" height="33"/>
<text transform="matrix(1 0 0 1 291.3068 894.7047)" class="st1 st6 st7">Company</text>
<rect x="281.3" y="908" class="st2" width="144.7" height="33"/>
<text transform="matrix(1 0 0 1 291.3068 927.7047)" class="st6 st7">id</text>
<text transform="matrix(1 0 0 1 369.2492 927.7047)" class="st6 st7">integer</text>
<rect x="281.3" y="941" class="st2" width="144.7" height="33"/>
<text transform="matrix(1 0 0 1 291.3068 960.7047)" class="st8 st4 st7">name</text>
<text transform="matrix(1 0 0 1 381.5573 960.7047)" class="st8 st4 st7">string</text>
<rect x="246.1" y="634.6" class="st9" width="193.8" height="33"/>
<text transform="matrix(1 0 0 1 256.0595 654.3751)" class="st1 st6 st7">CompanyContacts</text>
<rect x="246.1" y="667.6" class="st2" width="193.8" height="33"/>
<text transform="matrix(1 0 0 1 256.0595 687.3751)" class="st6 st7">id</text>
<text transform="matrix(1 0 0 1 383.1137 687.3751)" class="st6 st7">integer</text>
<rect x="246.1" y="700.6" class="st2" width="193.8" height="33"/>
<text transform="matrix(1 0 0 1 256.0595 720.3751)" class="st8 st4 st7">company_id</text>
<text transform="matrix(1 0 0 1 387.0175 720.3751)" class="st8 st4 st7">integer</text>
<rect x="246.1" y="733.6" class="st2" width="193.8" height="33"/>
<text transform="matrix(1 0 0 1 256.0595 753.3751)" class="st8 st4 st7">kind</text>
<text transform="matrix(1 0 0 1 395.4218 753.3751)" class="st8 st4 st7">string</text>
<rect x="246.1" y="766.6" class="st2" width="193.8" height="33"/>
<text transform="matrix(1 0 0 1 256.0595 786.3751)" class="st8 st4 st7">value</text>
<text transform="matrix(1 0 0 1 395.4218 786.3751)" class="st8 st4 st7">string</text>
<rect x="601.6" y="1050.2" class="st3" width="144.7" height="33"/>
<text transform="matrix(1 0 0 1 611.5635 1069.9358)" class="st1 st6 st7">Tag</text>
<rect x="601.6" y="1083.2" class="st2" width="144.7" height="33"/>
<text transform="matrix(1 0 0 1 611.5635 1102.9358)" class="st6 st7">id</text>
<text transform="matrix(1 0 0 1 689.5059 1102.9358)" class="st6 st7">integer</text>
<rect x="601.6" y="1116.2" class="st2" width="144.7" height="33"/>
<text transform="matrix(1 0 0 1 611.5635 1135.9358)" class="st8 st4 st7">name</text>
<text transform="matrix(1 0 0 1 701.814 1135.9358)" class="st8 st4 st7">string</text>
<text transform="matrix(1 0 0 1 342.2935 1035.8687)" class="st1 st6 st7">CompanyTags</text>
<rect x="332.3" y="1049.1" class="st2" width="193.8" height="33"/>
<text transform="matrix(1 0 0 1 342.2935 1068.8687)" class="st6 st7">company_id</text>
<text transform="matrix(1 0 0 1 469.3477 1068.8687)" class="st6 st7">integer</text>
<rect x="332.3" y="1082.1" class="st2" width="193.8" height="33"/>
<text transform="matrix(1 0 0 1 342.2935 1101.8687)" class="st6 st7">tag_id</text>
<text transform="matrix(1 0 0 1 469.3477 1101.8687)" class="st6 st7">integer</text>
<rect x="571.4" y="745.2" width="193.8" height="33"/>
<text transform="matrix(1 0 0 1 581.4149 764.968)" class="st1 st6 st7">Teacher</text>
<rect x="571.4" y="778.2" class="st2" width="193.8" height="33"/>
<text transform="matrix(1 0 0 1 581.4149 797.968)" class="st6 st7">user_id</text>
<text transform="matrix(1 0 0 1 708.4691 797.968)" class="st6 st7">integer</text>
<rect x="571.4" y="811.2" class="st2" width="193.8" height="33"/>
<text transform="matrix(1 0 0 1 581.4149 830.968)" class="st8 st4 st7">company_id</text>
<text transform="matrix(1 0 0 1 712.3729 830.968)" class="st8 st4 st7">integer</text>
<rect x="571.4" y="844.2" class="st2" width="193.8" height="33"/>
<text transform="matrix(1 0 0 1 581.4149 863.968)" class="st8 st4 st7">bio</text>
<text transform="matrix(1 0 0 1 720.7772 863.968)" class="st8 st4 st7">string</text>
<text transform="matrix(1 0 0 1 581.319 939.7806)" class="st1 st6 st7">TeacherTags</text>
<rect x="571.3" y="953" class="st2" width="184.3" height="33"/>
<text transform="matrix(1 0 0 1 581.319 972.7806)" class="st6 st7">teacher_id</text>
<text transform="matrix(1 0 0 1 698.8453 972.7806)" class="st6 st7">integer</text>
<rect x="571.3" y="986" class="st2" width="184.3" height="33"/>
<text transform="matrix(1 0 0 1 581.319 1005.7806)" class="st6 st7">tag_id</text>
<text transform="matrix(1 0 0 1 698.8453 1005.7806)" class="st6 st7">integer</text>
<rect x="1066.6" y="1049.6" class="st10" width="218.6" height="33"/>
<text transform="matrix(1 0 0 1 1076.5677 1069.3451)" class="st1 st6 st7">Course</text>
<rect x="1066.6" y="1082.6" class="st2" width="218.6" height="33"/>
<text transform="matrix(1 0 0 1 1076.5677 1102.3451)" class="st6 st7">id</text>
<text transform="matrix(1 0 0 1 1228.4095 1102.3451)" class="st6 st7">integer</text>
<rect x="1066.6" y="1115.6" class="st2" width="218.6" height="33"/>
<text transform="matrix(1 0 0 1 1076.5677 1135.3451)" class="st8 st4 st7">name</text>
<text transform="matrix(1 0 0 1 1240.7177 1135.3451)" class="st8 st4 st7">string</text>
<rect x="1066.6" y="1148.6" class="st2" width="218.6" height="33"/>
<text transform="matrix(1 0 0 1 1076.5677 1168.3451)" class="st8 st4 st7">description</text>
<text transform="matrix(1 0 0 1 1240.7177 1168.3451)" class="st8 st4 st7">string</text>
<rect x="1066.6" y="1181.6" class="st2" width="218.6" height="33"/>
<text transform="matrix(1 0 0 1 1076.5677 1201.3451)" class="st8 st4 st7">author_id</text>
<text transform="matrix(1 0 0 1 1232.3134 1201.3451)" class="st8 st4 st7">integer</text>
<rect x="1066.6" y="1214.6" class="st2" width="218.6" height="33"/>
<text transform="matrix(1 0 0 1 1076.5677 1234.3451)" class="st8 st4 st7">date_created</text>
<text transform="matrix(1 0 0 1 1220.8114 1234.3451)" class="st8 st4 st7">datetime</text>
<rect x="1066.6" y="1247.6" class="st2" width="218.6" height="33"/>
<text transform="matrix(1 0 0 1 1076.5677 1267.3451)" class="st8 st4 st7">date_updated</text>
<text transform="matrix(1 0 0 1 1220.8114 1267.3451)" class="st8 st4 st7">datetime</text>
<rect x="1066.6" y="1280.6" class="st2" width="218.6" height="33"/>
<text transform="matrix(1 0 0 1 1076.5677 1300.3451)" class="st8 st4 st7">views</text>
<text transform="matrix(1 0 0 1 1232.3134 1300.3451)" class="st8 st4 st7">integer</text>
<text transform="matrix(1 0 0 1 810.2094 1068.6847)" class="st1 st6 st7">CourseTags</text>
<rect x="800.2" y="1081.9" class="st2" width="177.6" height="33"/>
<text transform="matrix(1 0 0 1 810.2094 1101.6847)" class="st6 st7">course_id</text>
<text transform="matrix(1 0 0 1 921.0707 1101.6847)" class="st6 st7">integer</text>
<rect x="800.2" y="1114.9" class="st2" width="177.6" height="33"/>
<text transform="matrix(1 0 0 1 810.2094 1134.6847)" class="st6 st7">tag_id</text>
<text transform="matrix(1 0 0 1 921.0707 1134.6847)" class="st6 st7">integer</text>
<rect x="1353.5" y="945.4" class="st10" width="181.2" height="33"/>
<text transform="matrix(1 0 0 1 1363.5089 965.1456)" class="st1 st6 st7">Lesson</text>
<rect x="1353.5" y="978.4" class="st2" width="181.2" height="33"/>
<text transform="matrix(1 0 0 1 1363.5089 998.1456)" class="st6 st7">id</text>
<text transform="matrix(1 0 0 1 1477.963 998.1456)" class="st6 st7">integer</text>
<rect x="1353.5" y="1011.4" class="st2" width="181.2" height="33"/>
<text transform="matrix(1 0 0 1 1363.5089 1031.1456)" class="st8 st4 st7">course_id</text>
<text transform="matrix(1 0 0 1 1481.8668 1031.1456)" class="st8 st4 st7">integer</text>
<rect x="1353.5" y="1044.4" class="st2" width="181.2" height="33"/>
<text transform="matrix(1 0 0 1 1363.5089 1064.1456)" class="st8 st4 st7">name</text>
<text transform="matrix(1 0 0 1 1490.2711 1064.1456)" class="st8 st4 st7">string</text>
<rect x="1353.5" y="1077.4" class="st2" width="181.2" height="33"/>
<text transform="matrix(1 0 0 1 1363.5089 1097.1456)" class="st8 st4 st7">number</text>
<text transform="matrix(1 0 0 1 1481.8668 1097.1456)" class="st8 st4 st7">integer</text>
<rect x="1353.5" y="1110.4" class="st2" width="181.2" height="33"/>
<text transform="matrix(1 0 0 1 1363.5089 1130.1456)" class="st8 st4 st7">description</text>
<text transform="matrix(1 0 0 1 1490.2711 1130.1456)" class="st8 st4 st7">string</text>
<rect x="1353.5" y="1143.4" class="st2" width="181.2" height="33"/>
<text transform="matrix(1 0 0 1 1363.5089 1163.1456)" class="st8 st4 st7">duration</text>
<text transform="matrix(1 0 0 1 1497.4757 1163.1456)" class="st8 st4 st7">time</text>
<rect x="1165.9" y="306.9" class="st11" width="184.3" height="33"/>
<text transform="matrix(1 0 0 1 1175.8979 326.6555)" class="st1 st6 st7">Group</text>
<rect x="1165.9" y="339.9" class="st2" width="184.3" height="33"/>
<text transform="matrix(1 0 0 1 1175.8979 359.6555)" class="st6 st7">id</text>
<text transform="matrix(1 0 0 1 1293.4243 359.6555)" class="st6 st7">integer</text>
<rect x="1165.9" y="372.9" class="st2" width="184.3" height="33"/>
<text transform="matrix(1 0 0 1 1175.8979 392.6555)" class="st8 st4 st7">name</text>
<text transform="matrix(1 0 0 1 1305.7324 392.6555)" class="st8 st4 st7">string</text>
<rect x="1165.9" y="405.9" class="st2" width="184.3" height="33"/>
<text transform="matrix(1 0 0 1 1175.8979 425.6555)" class="st8 st4 st7">teacher_id</text>
<text transform="matrix(1 0 0 1 1297.3281 425.6555)" class="st8 st4 st7">integer</text>
<rect x="869.6" y="173.7" class="st11" width="185" height="33"/>
<text transform="matrix(1 0 0 1 879.5748 193.4827)" class="st1 st6 st7">GroupStudents</text>
<rect x="869.6" y="206.7" class="st2" width="185" height="33"/>
<text transform="matrix(1 0 0 1 879.5748 226.4827)" class="st6 st7">group_id</text>
<text transform="matrix(1 0 0 1 997.8566 226.4827)" class="st6 st7">integer</text>
<rect x="869.6" y="239.7" class="st2" width="185" height="33"/>
<text transform="matrix(1 0 0 1 879.5748 259.4827)" class="st6 st7">student_id</text>
<text transform="matrix(1 0 0 1 997.8566 259.4827)" class="st6 st7">integer</text>
<rect x="1074.2" y="607.5" class="st10" width="213.9" height="33"/>
<text transform="matrix(1 0 0 1 1084.1692 627.2183)" class="st1 st6 st7">Session</text>
<rect x="1074.2" y="640.5" class="st2" width="213.9" height="33"/>
<text transform="matrix(1 0 0 1 1084.1692 660.2183)" class="st6 st7">id</text>
<text transform="matrix(1 0 0 1 1231.282 660.2183)" class="st6 st7">integer</text>
<rect x="1074.2" y="673.5" class="st2" width="213.9" height="33"/>
<text transform="matrix(1 0 0 1 1084.1692 693.2183)" class="st8 st4 st7">course_id</text>
<text transform="matrix(1 0 0 1 1235.1858 693.2183)" class="st8 st4 st7">integer</text>
<rect x="1074.2" y="706.5" class="st2" width="213.9" height="33"/>
<text transform="matrix(1 0 0 1 1084.1692 726.2183)" class="st8 st4 st7">date_created</text>
<text transform="matrix(1 0 0 1 1223.6838 726.2183)" class="st8 st4 st7">datetime</text>
<rect x="1074.2" y="739.5" class="st2" width="213.9" height="33"/>
<text transform="matrix(1 0 0 1 1084.1692 759.2183)" class="st8 st4 st7">date_ended</text>
<text transform="matrix(1 0 0 1 1223.6838 759.2183)" class="st8 st4 st7">datetime</text>
<rect x="1074.2" y="772.5" class="st2" width="213.9" height="33"/>
<text transform="matrix(1 0 0 1 1084.1692 792.2183)" class="st8 st4 st7">active</text>
<text transform="matrix(1 0 0 1 1251.1692 792.2183)" class="st8 st4 st7">bool</text>
<rect x="1447.9" y="469.4" class="st11" width="181.9" height="33"/>
<text transform="matrix(1 0 0 1 1457.8929 489.1101)" class="st1 st6 st7">GroupSessions</text>
<rect x="1447.9" y="502.4" class="st2" width="181.9" height="33"/>
<text transform="matrix(1 0 0 1 1457.8929 522.1101)" class="st6 st7">session_id</text>
<text transform="matrix(1 0 0 1 1573.058 522.1101)" class="st6 st7">integer</text>
<rect x="1447.9" y="535.4" class="st2" width="181.9" height="33"/>
<text transform="matrix(1 0 0 1 1457.8929 555.1101)" class="st6 st7">group_id</text>
<text transform="matrix(1 0 0 1 1573.058 555.1101)" class="st6 st7">integer</text>
<rect x="1099.1" y="457.9" width="189.8" height="33"/>
<text transform="matrix(1 0 0 1 1109.0963 477.6019)" class="st1 st6 st7">IndividualSessions</text>
<rect x="1099.1" y="490.9" class="st2" width="189.8" height="33"/>
<text transform="matrix(1 0 0 1 1109.0963 510.6019)" class="st6 st7">session_id</text>
<text transform="matrix(1 0 0 1 1232.1134 510.6019)" class="st6 st7">integer</text>
<rect x="1099.1" y="523.9" class="st2" width="189.8" height="33"/>
<text transform="matrix(1 0 0 1 1109.0963 543.6019)" class="st6 st7">user_id</text>
<text transform="matrix(1 0 0 1 1232.1134 543.6019)" class="st6 st7">integer</text>
<rect x="1486.4" y="80.2" class="st10" width="199.1" height="33"/>
<text transform="matrix(1 0 0 1 1496.4315 99.955)" class="st1 st6 st7">Hometask</text>
<rect x="1486.4" y="113.2" class="st2" width="199.1" height="33"/>
<text transform="matrix(1 0 0 1 1496.4315 132.955)" class="st6 st7">id</text>
<text transform="matrix(1 0 0 1 1628.8051 132.955)" class="st6 st7">integer</text>
<rect x="1486.4" y="146.2" class="st2" width="199.1" height="33"/>
<text transform="matrix(1 0 0 1 1496.4315 165.955)" class="st8 st4 st7">description</text>
<text transform="matrix(1 0 0 1 1652.1962 165.955)" class="st8 st4 st7">text</text>
<rect x="1486.4" y="179.2" class="st2" width="199.1" height="33"/>
<text transform="matrix(1 0 0 1 1496.4315 198.955)" class="st8 st4 st7">session_id</text>
<text transform="matrix(1 0 0 1 1632.7089 198.955)" class="st8 st4 st7">integer</text>
<rect x="1486.4" y="212.2" class="st2" width="199.1" height="33"/>
<text transform="matrix(1 0 0 1 1496.4315 231.955)" class="st8 st4 st7">student_id</text>
<text transform="matrix(1 0 0 1 1632.7089 231.955)" class="st8 st4 st7">integer</text>
<rect x="1486.4" y="245.2" class="st2" width="199.1" height="33"/>
<text transform="matrix(1 0 0 1 1496.4315 264.955)" class="st8 st4 st7">date_given</text>
<text transform="matrix(1 0 0 1 1621.2069 264.955)" class="st8 st4 st7">datetime</text>
<rect x="1486.4" y="278.2" class="st2" width="199.1" height="33"/>
<text transform="matrix(1 0 0 1 1496.4315 297.955)" class="st8 st4 st7">date_done</text>
<text transform="matrix(1 0 0 1 1621.2069 297.955)" class="st8 st4 st7">datetime</text>
<rect x="1486.4" y="311.2" class="st2" width="199.1" height="33"/>
<text transform="matrix(1 0 0 1 1496.4315 330.955)" class="st8 st4 st7">daedline</text>
<text transform="matrix(1 0 0 1 1621.2069 330.955)" class="st8 st4 st7">datetime</text>
<rect x="1486.4" y="344.2" class="st2" width="199.1" height="33"/>
<text transform="matrix(1 0 0 1 1496.4315 363.955)" class="st8 st4 st7">mark</text>
<text transform="matrix(1 0 0 1 1632.7089 363.955)" class="st8 st4 st7">integer</text>
<rect x="996" y="831.2" class="st10" width="185" height="33"/>
<text transform="matrix(1 0 0 1 1006.0151 850.9069)" class="st1 st6 st7">Progress</text>
<rect x="996" y="864.2" class="st2" width="185" height="33"/>
<text transform="matrix(1 0 0 1 1006.0151 883.9069)" class="st6 st7">id</text>
<text transform="matrix(1 0 0 1 1124.2969 883.9069)" class="st6 st7">integer</text>
<rect x="996" y="897.2" class="st2" width="185" height="33"/>
<text transform="matrix(1 0 0 1 1006.0151 916.9069)" class="st8 st4 st7">student_id</text>
<text transform="matrix(1 0 0 1 1128.2007 916.9069)" class="st8 st4 st7">integer</text>
<rect x="996" y="930.2" class="st2" width="185" height="33"/>
<text transform="matrix(1 0 0 1 1006.0151 949.9069)" class="st8 st4 st7">lesson</text>
<text transform="matrix(1 0 0 1 1128.2007 949.9069)" class="st8 st4 st7">integer</text>
<rect x="996" y="963.2" class="st2" width="185" height="33"/>
<text transform="matrix(1 0 0 1 1006.0151 982.9069)" class="st8 st4 st7">step</text>
<text transform="matrix(1 0 0 1 1128.2007 982.9069)" class="st8 st4 st7">integer</text>
<rect x="20.8" y="272.6" class="st12" width="213.9" height="33"/>
<text transform="matrix(1 0 0 1 30.7885 292.3751)" class="st1 st6 st7">Chat</text>
<rect x="20.8" y="305.6" class="st2" width="213.9" height="33"/>
<text transform="matrix(1 0 0 1 30.7885 325.3751)" class="st6 st7">id</text>
<text transform="matrix(1 0 0 1 177.9013 325.3751)" class="st6 st7">integer</text>
<rect x="20.8" y="338.6" class="st2" width="213.9" height="33"/>
<text transform="matrix(1 0 0 1 30.7885 358.3751)" class="st8 st4 st7">name</text>
<text transform="matrix(1 0 0 1 190.2094 358.3751)" class="st8 st4 st7">string</text>
<rect x="20.8" y="371.6" class="st2" width="213.9" height="33"/>
<text transform="matrix(1 0 0 1 30.7885 391.3751)" class="st8 st4 st7">date_created</text>
<text transform="matrix(1 0 0 1 170.3032 391.3751)" class="st8 st4 st7">datetime</text>
<rect x="288.1" y="272.4" class="st12" width="163" height="33"/>
<text transform="matrix(1 0 0 1 298.0782 292.144)" class="st1 st6 st7">ChatMembers</text>
<rect x="288.1" y="305.4" class="st2" width="163" height="33"/>
<text transform="matrix(1 0 0 1 298.0782 325.144)" class="st6 st7">chat_id</text>
<text transform="matrix(1 0 0 1 394.3399 325.144)" class="st6 st7">integer</text>
<rect x="288.1" y="338.4" class="st2" width="163" height="33"/>
<text transform="matrix(1 0 0 1 298.0782 358.144)" class="st6 st7">user_id</text>
<text transform="matrix(1 0 0 1 394.3399 358.144)" class="st6 st7">integer</text>
<rect x="288.1" y="371.4" class="st2" width="163" height="33"/>
<text transform="matrix(1 0 0 1 298.0782 391.144)" class="st8 st4 st7">admin</text>
<text transform="matrix(1 0 0 1 414.2271 391.144)" class="st8 st4 st7">bool</text>
<g>
	<text transform="matrix(1 0 0 1 10 517.6225)" class="st6 st7">Link</text>
</g>
<text transform="matrix(1 0 0 1 10 550.6225)" class="st6 st7">url</text>
<text transform="matrix(1 0 0 1 165.5425 550.6225)" class="st6 st7">string</text>
<rect y="563.9" class="st2" width="213.4" height="33"/>
<text transform="matrix(1 0 0 1 10 583.6225)" class="st8 st4 st7">action</text>
<text transform="matrix(1 0 0 1 168.9512 583.6225)" class="st8 st4 st7">string</text>
<rect y="596.9" class="st2" width="213.4" height="33"/>
<text transform="matrix(1 0 0 1 10 616.6225)" class="st8 st4 st7">target</text>
<text transform="matrix(1 0 0 1 160.5469 616.6225)" class="st8 st4 st7">integer</text>
<rect y="629.9" class="st2" width="213.4" height="33"/>
<text transform="matrix(1 0 0 1 10 649.6225)" class="st8 st4 st7">date_expired</text>
<text transform="matrix(1 0 0 1 149.0449 649.6225)" class="st8 st4 st7">datetime</text>
<rect y="662.9" class="st2" width="213.4" height="33"/>
<text transform="matrix(1 0 0 1 10 682.6225)" class="st8 st4 st7">limit</text>
<text transform="matrix(1 0 0 1 160.5469 682.6225)" class="st8 st4 st7">integer</text>
<rect y="695.9" class="st2" width="213.4" height="33"/>
<text transform="matrix(1 0 0 1 10 715.6225)" class="st8 st4 st7">count_used</text>
<text transform="matrix(1 0 0 1 160.5469 715.6225)" class="st8 st4 st7">integer</text>
<rect x="565" width="202.5" height="33"/>
<text transform="matrix(1 0 0 1 575.0308 19.75)" class="st1 st6 st7">Notification</text>
<rect x="565" y="33" class="st2" width="202.5" height="33"/>
<text transform="matrix(1 0 0 1 575.0308 52.75)" class="st6 st7">id</text>
<text transform="matrix(1 0 0 1 710.813 52.75)" class="st6 st7">integer</text>
<rect x="565" y="66" class="st2" width="202.5" height="33"/>
<text transform="matrix(1 0 0 1 575.0308 85.75)" class="st8 st4 st7">user_id</text>
<text transform="matrix(1 0 0 1 714.7168 85.75)" class="st8 st4 st7">integer</text>
<rect x="565" y="99" class="st2" width="202.5" height="33"/>
<text transform="matrix(1 0 0 1 575.0308 118.75)" class="st8 st4 st7">date_alarm</text>
<text transform="matrix(1 0 0 1 703.2148 118.75)" class="st8 st4 st7">datetime</text>
<rect x="565" y="132" class="st2" width="202.5" height="33"/>
<text transform="matrix(1 0 0 1 575.0308 151.75)" class="st8 st4 st7">title</text>
<text transform="matrix(1 0 0 1 723.1211 151.75)" class="st8 st4 st7">string</text>
<rect x="565" y="165" class="st2" width="202.5" height="33"/>
<text transform="matrix(1 0 0 1 575.0308 184.75)" class="st8 st4 st7">description</text>
<text transform="matrix(1 0 0 1 723.1211 184.75)" class="st8 st4 st7">string</text>
<rect x="565" y="198" class="st2" width="202.5" height="33"/>
<text transform="matrix(1 0 0 1 575.0308 217.75)" class="st8 st4 st7">url</text>
<text transform="matrix(1 0 0 1 723.1211 217.75)" class="st8 st4 st7">string</text>
<text transform="matrix(1 0 0 1 26.2157 859.8101)" class="st6 st7">Admin</text>
<text transform="matrix(1 0 0 1 26.2157 892.8101)" class="st6 st7">id</text>
<text transform="matrix(1 0 0 1 135.0521 892.8101)" class="st6 st7">integer</text>
<rect x="16.2" y="906.1" class="st2" width="175.6" height="33"/>
<text transform="matrix(1 0 0 1 26.2157 925.8101)" class="st8 st4 st7">login</text>
<text transform="matrix(1 0 0 1 147.3602 925.8101)" class="st8 st4 st7">string</text>
<rect x="16.2" y="939.1" class="st2" width="175.6" height="33"/>
<text transform="matrix(1 0 0 1 26.2157 958.8101)" class="st8 st4 st7">password</text>
<text transform="matrix(1 0 0 1 147.3602 958.8101)" class="st8 st4 st7">string</text>
<rect x="16.2" y="972.1" class="st2" width="175.6" height="33"/>
<text transform="matrix(1 0 0 1 26.2157 991.8101)" class="st8 st4 st7">telegram</text>
<text transform="matrix(1 0 0 1 138.9559 991.8101)" class="st8 st4 st7">integer</text>
</svg>
